<svg width="92px" height="92px" viewBox="0 0 92 92" version="1.1" xmlns="http://www.w3.org/2000/svg" xmlns:xlink="http://www.w3.org/1999/xlink">
    <g id="Page-1" stroke="none" stroke-width="1" fill="none" fill-rule="evenodd">
        <g id="Loading" transform="translate(-674.000000, -444.000000)" fill="#282828" fill-rule="nonzero">
            <path d="M692.706564,462.381209 L692.706564,516.97152 L747.287999,516.97152 L747.287999,462.381209 L692.706564,462.381209 Z M687.700984,462.381209 L687.700984,457.381209 L692.706564,457.37563 L748.050321,457.381209 L748.050321,457.399638 L752.287999,457.399638 L752.287999,516.97152 L752.300631,516.97152 L752.300631,521.97152 L687.700984,521.97152 L687.700984,516.97152 L687.706564,462.381209 Z M722.325463,470.161769 L722.325463,487.011011 L744.24804,487.011011 L744.24804,492.011011 L722.325463,492.011011 L722.325463,513.983464 L717.325463,513.983464 L717.325463,492.011011 L700.475796,492.011011 L700.475796,513.430956 L695.475796,513.430956 L695.475796,470.161769 L695.473596,465.161769 L695.475796,465.151487 L700.475796,465.151487 L700.475796,465.161769 L743.753065,465.161769 L743.753065,470.161769 L722.325463,470.161769 Z M717.325463,470.161769 L700.475796,470.161769 L700.475796,487.011011 L717.325463,487.011011 L717.325463,470.161769 Z" id="Logo" transform="translate(720.000808, 489.673575) rotate(-315.000000) translate(-720.000808, -489.673575) "></path>
        </g>
    </g>
</svg>
